<svg width="45" height="40" viewBox="0 0 45 40" fill="none" xmlns="http://www.w3.org/2000/svg">
<path d="M4.30831 22.7143H24.1533M4.30831 26.0539H17.5389M4.30831 16.0328H10.9228V19.3746H4.30831V16.0328ZM10.9228 9.35077C10.9228 10.2709 10.1794 11.0228 9.26836 11.0228H5.96112C5.05167 11.0228 4.30831 10.2709 4.30831 9.35077V6.01166C4.30831 5.0926 5.05167 4.34074 5.96112 4.34074H9.26836C10.1794 4.34074 10.9228 5.0926 10.9228 6.01166V9.35077ZM14.2311 16.0328H20.8467V19.3746H14.2311V16.0328ZM24.1534 16.0328H30.7689V19.3746H24.1534V16.0328ZM34.0788 16.0328H40.6933V19.3746H34.0788V16.0328ZM40.6928 7.34817C40.6928 9.00883 38.4711 10.3551 35.7306 10.3551C32.99 10.3551 30.7684 9.00883 30.7684 7.34817C30.7684 5.68751 32.99 4.34129 35.7306 4.34129C38.4711 4.34129 40.6928 5.68751 40.6928 7.34817ZM40.6933 1H4.30831C2.4878 1 1 2.50371 1 4.3402V27.7259C1 29.5624 2.4878 31.0651 4.30831 31.0651H25.1983C25.1972 30.9961 25.1875 30.9277 25.1875 30.8577C25.1875 26.359 28.7984 22.7132 33.2527 22.7132C37.7043 22.7132 41.3136 26.359 41.3136 30.8577C41.3136 30.9065 41.3077 30.9543 41.3061 31.0032C42.8358 30.7095 44 29.3518 44 27.7259V4.3402C44 2.50371 42.5133 1 40.6933 1ZM41.3136 30.8566C41.3136 35.3541 37.7036 39 33.2505 39C28.7974 39 25.1875 35.3541 25.1875 30.8566C25.1875 26.3591 28.7974 22.7132 33.2505 22.7132C37.7036 22.7132 41.3136 26.3591 41.3136 30.8566ZM38.2396 28.6966L36.8136 27.2575L32.5373 31.577L29.6875 28.6966L28.2615 30.1357L32.5373 34.4552L38.2396 28.6966Z" stroke="#262626" stroke-width="1.5" stroke-miterlimit="10" stroke-linecap="round" stroke-linejoin="round"/>
</svg>
