<svg width="38" height="38" viewBox="0 0 38 38" fill="none" xmlns="http://www.w3.org/2000/svg">
<path d="M2.53333 19.5053C2.53333 20.8974 3.66542 22.0221 5.06667 22.0221C6.46792 22.0221 7.6 20.8974 7.6 19.5053C7.6 18.1131 6.46792 16.9884 5.06667 16.9884C3.66542 16.9884 2.53333 18.1131 2.53333 19.5053ZM6.33333 19.5053C6.33333 20.1974 5.76333 20.7637 5.06667 20.7637C4.37 20.7637 3.8 20.1974 3.8 19.5053C3.8 18.8131 4.37 18.2468 5.06667 18.2468C5.76333 18.2468 6.33333 18.8131 6.33333 19.5053Z" fill="#262626"/>
<path d="M3.8 13.6222V13.8424H5.06667V13.6222C5.06667 11.656 6.66583 10.0672 8.645 10.0672H8.86667V8.80882H8.645C6.66583 8.80882 5.06667 7.22009 5.06667 5.25383V5.03361H3.8V5.25383C3.8 7.22009 2.20083 8.80882 0.221667 8.80882H0V10.0672H0.221667C2.20083 10.0672 3.8 11.656 3.8 13.6222ZM4.43333 7.62907C4.86875 8.38411 5.49417 9.00545 6.25417 9.43803C5.49417 9.8706 4.86875 10.4919 4.43333 11.247C3.99792 10.4919 3.3725 9.8706 2.6125 9.43803C3.3725 9.00545 3.99792 8.38411 4.43333 7.62907Z" fill="#262626"/>
<path d="M11.8512 6.74031L13.3 5.29314L14.7487 6.74031L15.6512 5.8437L14.1946 4.4044L15.6512 2.9651L14.7487 2.06849L13.3 3.51565L11.8512 2.06849L10.9487 2.9651L12.4054 4.4044L10.9487 5.8437L11.8512 6.74031Z" fill="#262626"/>
<path d="M34.8333 28.3141C33.0837 28.3141 31.6667 29.7219 31.6667 31.4601C31.6667 33.1983 33.0837 34.6061 34.8333 34.6061C36.5829 34.6061 38 33.1983 38 31.4601C38 29.7219 36.5829 28.3141 34.8333 28.3141ZM34.8333 33.3477C33.7804 33.3477 32.9333 32.5061 32.9333 31.4601C32.9333 30.414 33.7804 29.5725 34.8333 29.5725C35.8862 29.5725 36.7333 30.414 36.7333 31.4601C36.7333 32.4983 35.8783 33.3477 34.8333 33.3477Z" fill="#262626"/>
<path d="M36.1 10.6964H34.8333V12.584H36.1V10.6964Z" fill="#262626"/>
<path d="M38 12.584H36.1V13.8424H38V12.584Z" fill="#262626"/>
<path d="M36.1 13.8424H34.8333V15.73H36.1V13.8424Z" fill="#262626"/>
<path d="M34.8333 12.584H32.9333V13.8424H34.8333V12.584Z" fill="#262626"/>
<path d="M33.3133 18.7895L30.4396 12.12L34.7462 6.55156C36.1237 4.7662 35.7912 2.21007 33.9942 0.841557C33.2737 0.291006 32.4029 0 31.4925 0H31.3262C29.07 0 27.2333 1.82469 27.2333 4.07408V10.8223L24.4467 12.0099L24.9454 13.166L28.215 11.7739C28.5396 11.6402 28.9117 11.7818 29.0462 12.1043L32.1496 19.2929C32.2129 19.4423 32.2208 19.6154 32.1575 19.7648L25.84 36.3207C25.7133 36.6431 25.3492 36.8083 25.0246 36.6825C25.0167 36.6825 25.0087 36.6746 25.0087 36.6746L19.5542 34.4173L25.7054 19.6547C25.9192 19.1513 25.8954 18.5772 25.65 18.0896L22.2617 11.3571L25.5629 5.78866C26.6475 3.96397 26.03 1.61233 24.1933 0.542686C23.5996 0.196626 22.9267 0.0157301 22.2379 0.0157301C20.0925 5.9771e-08 18.3667 1.71457 18.3667 3.83813V10.4605L12.2867 13.0481C11.8037 13.2526 11.4317 13.6458 11.2496 14.1334L7.03791 25.5456L2.19291 23.7445L0.474998 27.5826C-0.261252 29.2186 0.435415 31.1298 2.0425 31.932C2.12958 31.9713 2.21666 32.0106 2.30375 32.05V32.0578L16.3558 37.2959C16.5696 37.3746 16.7992 37.4218 17.0287 37.4218C17.7967 37.4218 18.4854 36.9577 18.7783 36.2577L19.0554 35.5971L24.51 37.8543C25.4758 38.2555 26.5921 37.7993 26.9958 36.8398C27.0037 36.824 27.0117 36.8004 27.0196 36.7847L33.3371 20.2288C33.5192 19.7491 33.5112 19.2378 33.3133 18.7895ZM29.1729 10.5942C28.9592 10.5077 28.7296 10.4605 28.5 10.4605V4.07408C28.5 2.51681 29.7667 1.2584 31.3342 1.2584H31.5004C33.0679 1.2584 34.3346 2.51681 34.3346 4.07408C34.3346 4.69542 34.1287 5.30102 33.7487 5.78866L29.7508 10.956C29.5767 10.7987 29.3867 10.6807 29.1729 10.5942ZM19.6333 3.83813C19.6333 2.41456 20.7971 1.26627 22.23 1.2584C23.6629 1.2584 24.8267 2.41456 24.8267 3.83813C24.8267 4.2943 24.7 4.75047 24.4704 5.14372L21.4779 10.2009C20.9554 9.79982 20.2667 9.69757 19.6492 9.92566V3.83813H19.6333ZM19 15.1008C19.6967 15.1008 20.2667 15.6671 20.2667 16.3592C20.2667 17.0514 19.6967 17.6176 19 17.6176C18.3033 17.6176 17.7333 17.0514 17.7333 16.3592C17.7333 15.6671 18.3033 15.1008 19 15.1008ZM4.33041 30.8702C3.25375 31.2949 2.03458 30.768 1.60708 29.6983C1.40125 29.1792 1.40916 28.5972 1.63875 28.086L2.87375 25.3332L6.61041 26.7253L5.52583 29.6511C5.32 30.2095 4.88458 30.65 4.33041 30.8702ZM17.6146 35.7544C17.4879 36.069 17.1237 36.2263 16.8071 36.1004L5.2725 31.8061C5.9375 31.4129 6.44416 30.8073 6.71333 30.0837L12.4371 14.566C12.5004 14.4009 12.6192 14.275 12.7854 14.2042L18.3667 11.829V13.9211C17.0129 14.2671 16.1975 15.6435 16.5458 16.9884C16.8942 18.3334 18.2796 19.1435 19.6333 18.7974C20.9871 18.4513 21.8025 17.075 21.4542 15.73C21.2246 14.8413 20.5279 14.1492 19.6333 13.9211V11.2863L20.0529 11.1054C20.3617 10.9717 20.7179 11.1054 20.8683 11.4043L24.51 18.6401C24.5892 18.8053 24.5971 18.994 24.5258 19.1592L17.6146 35.7544Z" fill="#262626"/>
<path d="M27.0196 18.1761L27.4392 19.3637C28.7612 18.8996 29.45 17.4603 28.9829 16.1548C28.5158 14.8413 27.0671 14.157 25.7529 14.6211L26.1725 15.8087C26.8296 15.5806 27.5579 15.9188 27.7875 16.5795C28.025 17.2244 27.6846 17.9401 27.0196 18.1761Z" fill="#262626"/>
<path d="M8.4607 28.9868L8.00597 30.1613L16.2369 33.3067L16.6916 32.1323L8.4607 28.9868Z" fill="#262626"/>
<path d="M9.95125 28.0545L16.2054 30.3826L18.5488 24.1692L12.2946 21.8412L9.95125 28.0545ZM16.9179 24.9085L15.4613 28.7624L11.5821 27.3152L13.0388 23.4614L16.9179 24.9085Z" fill="#262626"/>
<path d="M13.9685 24.9658L13.335 26.8535L14.5367 27.2516L15.1702 25.3638L13.9685 24.9658Z" fill="#262626"/>
</svg>
