<svg width="40" height="38" viewBox="0 0 40 38" fill="none" xmlns="http://www.w3.org/2000/svg">
<path d="M38.6647 19.6265C38.6518 19.456 38.5762 19.2968 38.4529 19.1807C38.3297 19.0645 38.1679 19 38 19H28.4341L27.9991 10.1447C27.9906 9.97077 27.9167 9.80689 27.7928 9.68691C27.6688 9.56692 27.5043 9.50001 27.3333 9.50001H22.6666V6.10715C22.667 5.13003 22.4369 4.16711 21.9957 3.29929C21.5545 2.43148 20.9151 1.68413 20.1313 1.12004C19.3474 0.555959 18.442 0.191625 17.4911 0.0576554C16.5402 -0.0763143 15.5716 0.0239946 14.6666 0.350153C13.7617 0.0239946 12.7931 -0.0763143 11.8422 0.0576554C10.8913 0.191625 9.98588 0.555959 9.20202 1.12004C8.41817 1.68413 7.77878 2.43148 7.3376 3.29929C6.89642 4.16711 6.66632 5.13003 6.66666 6.10715V9.50001H2C1.82896 9.50001 1.66446 9.56692 1.54053 9.68691C1.4166 9.80689 1.34272 9.97077 1.33417 10.1447L0.000833893 37.2875C-0.00368384 37.3794 0.0101896 37.4712 0.0416115 37.5574C0.0730335 37.6436 0.121348 37.7225 0.183621 37.7891C0.245893 37.8557 0.320824 37.9088 0.403862 37.945C0.4869 37.9813 0.576312 38 0.666666 38H39.3333C39.4251 38 39.516 37.9807 39.6002 37.9433C39.6844 37.9058 39.7601 37.8511 39.8225 37.7825C39.8849 37.7139 39.9327 37.6329 39.9629 37.5446C39.9931 37.4563 40.0051 37.3626 39.998 37.2693L38.6647 19.6265ZM36.6666 34.4733L38.0876 36.6429H35.246L36.6666 34.4733ZM38.473 34.7845L37.3135 33.0143L36.07 20.3571H37.3826L38.473 34.7845ZM34.73 20.3571L35.98 33.0758L34.5166 35.3095L33.3865 20.3571H34.73ZM27.0991 19H25.8444L25.3737 10.8572H26.6987L27.0991 19ZM24.0381 10.8572L24.5087 19H23.1004L22.7004 10.8572H24.0381ZM16.6666 1.35715C17.9039 1.35859 19.0901 1.8595 19.9649 2.74998C20.8398 3.64047 21.3319 4.84782 21.3333 6.10715V9.50001H18.6666V6.10715C18.6666 5.19734 18.4666 4.29906 18.0812 3.47816C17.6958 2.65726 17.1349 1.93455 16.4394 1.36301C16.5147 1.35936 16.5904 1.35715 16.6666 1.35715ZM14.6666 1.81638C15.464 2.20211 16.1376 2.80987 16.6096 3.56925C17.0815 4.32864 17.3325 5.20858 17.3333 6.10715V9.50001H12V6.10715C12.0008 5.20858 12.2518 4.32864 12.7237 3.56925C13.1957 2.80987 13.8693 2.20211 14.6666 1.81638ZM7.99999 6.10715C8.0014 4.84782 8.49352 3.64047 9.36838 2.74998C10.2432 1.8595 11.4294 1.35859 12.6667 1.35715C12.7429 1.35715 12.8186 1.35936 12.8939 1.36301C12.1984 1.93454 11.6374 2.65725 11.252 3.47815C10.8667 4.29905 10.6666 5.19734 10.6667 6.10715V9.50001H7.99999V6.10715ZM16.0493 36.6429H1.3675L2.63416 10.8572H6.66666V15.244L4.96349 16.3997C4.87219 16.4617 4.79732 16.5456 4.74554 16.6441C4.69376 16.7426 4.66666 16.8526 4.66666 16.9643V22.3929C4.66666 22.5728 4.7369 22.7454 4.86192 22.8727C4.98695 22.9999 5.15652 23.0714 5.33333 23.0714H9.33332C9.51013 23.0714 9.6797 22.9999 9.80473 22.8727C9.92975 22.7454 9.99999 22.5728 9.99999 22.3929V16.9643C9.99999 16.8526 9.97289 16.7426 9.92111 16.6441C9.86933 16.5456 9.79446 16.4617 9.70316 16.3997L7.99999 15.244V10.8572H17.3333V12.8929C17.3333 13.0728 17.4035 13.2454 17.5286 13.3727C17.6536 13.4999 17.8232 13.5714 18 13.5714C18.1768 13.5714 18.3464 13.4999 18.4714 13.3727C18.5964 13.2454 18.6666 13.0728 18.6666 12.8929V10.8572H21.3658L21.7658 19H18C17.832 19 17.6702 19.0645 17.547 19.1807C17.4237 19.2968 17.3481 19.456 17.3352 19.6265L16.0493 36.6429ZM7.33332 16.4227L8.66666 17.3274V21.7143H5.99999V17.3274L7.33332 16.4227ZM18.6173 20.3571H32.0493L33.28 36.6429H17.3866L18.6173 20.3571Z" fill="#262626"/>
<path d="M28.6666 23.0714C28.4898 23.0714 28.3203 23.1429 28.1952 23.2702C28.0702 23.3974 28 23.57 28 23.75V29.1786C27.9994 29.7183 27.7885 30.2357 27.4135 30.6174C27.0386 30.999 26.5302 31.2137 26 31.2143H24.6666C24.1364 31.2137 23.628 30.999 23.2531 30.6174C22.8781 30.2357 22.6672 29.7183 22.6666 29.1786V23.75C22.6666 23.57 22.5964 23.3974 22.4714 23.2702C22.3464 23.1429 22.1768 23.0714 22 23.0714C21.8232 23.0714 21.6536 23.1429 21.5286 23.2702C21.4035 23.3974 21.3333 23.57 21.3333 23.75V29.1786C21.3343 30.0781 21.6858 30.9405 22.3107 31.5766C22.9356 32.2126 23.7829 32.5704 24.6666 32.5714H26C26.8837 32.5704 27.731 32.2126 28.3559 31.5766C28.9808 30.9405 29.3323 30.0781 29.3333 29.1786V23.75C29.3333 23.57 29.2631 23.3974 29.138 23.2702C29.013 23.1429 28.8434 23.0714 28.6666 23.0714Z" fill="#262626"/>
</svg>
