<svg width="194" height="45" viewBox="0 0 194 45" fill="none" xmlns="http://www.w3.org/2000/svg">
<path d="M191.391 2.96972C184.402 3.73358 177.327 3.89729 172.213 5.66121C170.47 5.85181 174.239 7.85047 172.646 9.23026C170.904 9.42086 167.4 9.80352 165.639 9.99558C164.112 11.9644 167.815 13.374 166.288 15.3429C164.761 17.3117 157.622 16.8864 156.011 18.2676C150.897 20.0316 159.732 19.6758 164.979 19.1025C163.368 20.4838 168.482 18.7199 168.615 19.9105C168.897 22.2904 169.18 24.6702 162.407 27.2123C160.73 27.992 162.69 29.5922 162.84 30.7814C141.835 33.0633 119.105 35.5344 97.8164 35.4365C80.0985 35.5576 59.2444 40.407 41.6751 40.3264C36.3619 40.298 27.8943 43.6338 24.0411 41.035C25.7839 40.8444 27.5449 40.6524 29.2877 40.4618C23.824 39.2442 18.7935 41.5957 13.4631 41.5814C13.3126 40.3922 13.246 39.7906 11.4194 39.3936C14.9231 39.0109 20.2364 39.0393 23.6745 38.0676L23.4584 36.2893C19.888 36.0704 14.7737 37.8343 11.2033 37.6154C11.1366 37.0138 10.9861 35.8246 10.9205 35.2355C10.8548 34.6465 9.09284 34.826 7.35005 35.0166C9.09284 34.826 12.5966 34.4433 14.3576 34.2512C14.292 33.6622 14.1405 32.4604 14.0748 31.8714C14.0082 31.2698 12.2472 31.4618 10.5044 31.6524C10.3539 30.4632 8.46065 29.4647 10.1378 28.685C11.8988 28.4929 13.6416 28.3023 15.3844 28.1117C8.31017 28.2755 4.45697 25.6767 4.24085 23.8984C6.06848 24.308 5.85135 22.5172 7.67899 22.9267C2.21528 21.7092 -3.31406 19.9026 3.60966 18.5497C64.6298 10.1065 127.911 5.64199 189.299 0.178855C192.852 0.411827 191.24 1.78052 191.391 2.96972Z" fill="#FDDB2B"/>
</svg>
