<svg width="20" height="19" viewBox="0 0 20 19" fill="none" xmlns="http://www.w3.org/2000/svg">
<path d="M6.74196 14.1915C5.67649 14.1915 4.81279 15.0552 4.81279 16.1206C4.81279 17.1861 5.67653 18.0498 6.74196 18.0498C7.80743 18.0498 8.67112 17.186 8.67112 16.1206C8.67116 15.0552 7.80743 14.1915 6.74196 14.1915ZM6.74196 17.1146C6.19299 17.1146 5.74799 16.6696 5.74799 16.1207C5.74799 15.5717 6.19299 15.1267 6.74196 15.1267C7.29092 15.1267 7.73593 15.5717 7.73593 16.1207C7.73596 16.6696 7.29092 17.1146 6.74196 17.1146Z" fill="#FDDB2B" stroke="#FDDB2B" stroke-width="0.1"/>
<path d="M14.676 14.1915C13.6106 14.1915 12.7469 15.0552 12.7469 16.1206C12.7469 17.1861 13.6106 18.0498 14.676 18.0498C15.7415 18.0498 16.6052 17.186 16.6052 16.1206C16.6052 15.0552 15.7415 14.1915 14.676 14.1915ZM14.676 17.1146C14.1271 17.1146 13.6821 16.6696 13.6821 16.1207C13.6821 15.5717 14.1271 15.1267 14.676 15.1267C15.225 15.1267 15.67 15.5717 15.67 16.1207C15.67 16.6696 15.225 17.1146 14.676 17.1146Z" fill="#FDDB2B" stroke="#FDDB2B" stroke-width="0.1"/>
<path d="M18.9528 3.24761L18.9529 3.24759L18.9517 3.24634C18.8564 3.14224 18.7261 3.07708 18.5857 3.06329L18.5857 3.06311L18.5815 3.06305L5.02446 2.87563L4.65973 1.76118L4.65974 1.76118L4.65948 1.76043C4.38782 0.972755 3.65022 0.440997 2.81707 0.432181V0.432178H2.81654H1.4176C1.15934 0.432178 0.95 0.641521 0.95 0.899774C0.95 1.15803 1.15934 1.36737 1.4176 1.36737H2.81598C3.24879 1.37716 3.62985 1.65509 3.77143 2.06422C3.77146 2.06432 3.7715 2.06441 3.77153 2.06451L6.41704 10.0427L6.21588 10.5054L6.21585 10.5054L6.21512 10.5073C5.97643 11.1228 6.04812 11.8155 6.40772 12.3691L6.40783 12.3693C6.76427 12.9134 7.36394 13.2493 8.01415 13.2688L8.01415 13.2688H8.01565H16.1379C16.3962 13.2688 16.6055 13.0595 16.6055 12.8012C16.6055 12.543 16.3962 12.3336 16.1379 12.3336H8.01622C7.67531 12.3249 7.36155 12.1455 7.18108 11.8561L7.18107 11.856C7.00217 11.5695 6.96518 11.2165 7.08065 10.899L7.23527 10.5512L15.9969 9.63546L15.9972 9.63543C16.9838 9.52676 17.7953 8.80921 18.024 7.84333L19.0255 3.64951C19.0755 3.51238 19.0479 3.35874 18.9528 3.24761ZM17.1124 7.63213L17.1122 7.63307C16.9814 8.22014 16.4829 8.65319 15.8834 8.70072L15.8822 8.70084L7.2362 9.59452L5.32897 3.81135L17.9954 3.99731L17.1124 7.63213Z" fill="#FDDB2B" stroke="#FDDB2B" stroke-width="0.1"/>
</svg>
