<svg width="14" height="16" viewBox="0 0 14 16" fill="none" xmlns="http://www.w3.org/2000/svg">
<path d="M7.00013 7.61707C8.86142 7.61707 10.3837 6.09482 10.3837 4.23353C10.3837 2.37225 8.86142 0.85 7.00013 0.85C5.13885 0.85 3.6166 2.37225 3.6166 4.23353C3.6166 6.09482 5.13885 7.61707 7.00013 7.61707ZM7.00013 1.86856C8.30053 1.86856 9.3651 2.93314 9.3651 4.23353C9.3651 5.53392 8.30053 6.5985 7.00013 6.5985C5.69974 6.5985 4.63516 5.53392 4.63516 4.23353C4.63516 2.93314 5.69974 1.86856 7.00013 1.86856Z" fill="white" stroke="white" stroke-width="0.3"/>
<path d="M1.35928 15.3774H12.6407C12.9212 15.3774 13.15 15.1486 13.15 14.8681V12.8921C13.15 10.2404 10.981 8.07144 8.32934 8.07144H5.67066C3.01895 8.07144 0.85 10.2404 0.85 12.8921V14.8681C0.85 15.1715 1.08384 15.3774 1.35928 15.3774ZM1.86856 12.9101C1.86856 10.8192 3.57985 9.10796 5.67066 9.10796H8.32934C10.4202 9.10796 12.1314 10.8192 12.1314 12.9101V14.3768H1.86856V12.9101Z" fill="white" stroke="white" stroke-width="0.3"/>
</svg>
