<svg width="19" height="17" viewBox="0 0 19 17" fill="none" xmlns="http://www.w3.org/2000/svg">
<path d="M9.5 17C9.77049 17 10.0313 16.9015 10.2345 16.7224C11.0021 16.0475 11.7421 15.4132 12.395 14.8536L12.3983 14.8507C14.3125 13.2102 15.9654 11.7935 17.1155 10.3979C18.4012 8.83778 19 7.35852 19 5.74252C19 4.17244 18.4647 2.72395 17.4927 1.66367C16.5092 0.590857 15.1596 0 13.6922 0C12.5954 0 11.591 0.348712 10.7069 1.03637C10.2607 1.38348 9.85631 1.80829 9.5 2.3038C9.14355 1.80829 8.73926 1.38348 8.29293 1.03637C7.40883 0.348712 6.40441 0 5.30766 0C3.84039 0 2.49068 0.590857 1.50713 1.66367C0.535187 2.72395 0 4.17244 0 5.74252C0 7.35852 0.598679 8.83778 1.88432 10.3978C3.03442 11.7935 4.68723 13.2101 6.60112 14.8504C7.25517 15.4108 7.99635 16.0461 8.76564 16.7227C8.96873 16.9015 9.22965 17 9.5 17ZM13.6922 1.11932C14.8451 1.11932 15.9041 1.58203 16.6746 2.42232C17.4565 3.2753 17.8872 4.45439 17.8872 5.74252C17.8872 7.10165 17.3849 8.31719 16.2587 9.68375C15.1702 11.0047 13.5512 12.3923 11.6766 13.9989L11.6731 14.0018C11.0177 14.5635 10.2748 15.2003 9.50159 15.8802C8.72375 15.199 7.97968 14.5612 7.32301 13.9986C5.44855 12.392 3.82966 11.0047 2.74117 9.68375C1.61513 8.31719 1.11285 7.10165 1.11285 5.74252C1.11285 4.45439 1.54352 3.2753 2.32542 2.42232C3.09573 1.58203 4.15495 1.11932 5.30766 1.11932C6.15218 1.11932 6.92757 1.38931 7.61221 1.92171C8.22234 2.39637 8.64735 2.99642 8.89654 3.41627C9.02468 3.63217 9.25024 3.76105 9.5 3.76105C9.74976 3.76105 9.97532 3.63217 10.1035 3.41627C10.3525 2.99642 10.7775 2.39637 11.3878 1.92171C12.0724 1.38931 12.8478 1.11932 13.6922 1.11932Z" fill="#FDDB2B"/>
</svg>
