<svg width="14" height="14" viewBox="0 0 14 14" fill="none" xmlns="http://www.w3.org/2000/svg">
<path d="M9.25 0.9H4.75C2.62402 0.9 0.9 2.62402 0.9 4.75V9.25C0.9 11.376 2.62402 13.1 4.75 13.1H9.25C11.376 13.1 13.1 11.376 13.1 9.25V4.75C13.1 2.62402 11.376 0.9 9.25 0.9ZM11.775 9.25C11.775 10.6423 10.6423 11.775 9.25 11.775H4.75C3.35773 11.775 2.225 10.6423 2.225 9.25V4.75C2.225 3.35773 3.35773 2.225 4.75 2.225H9.25C10.6423 2.225 11.775 3.35773 11.775 4.75V9.25ZM7 3.9C5.28802 3.9 3.9 5.28802 3.9 7C3.9 8.71198 5.28802 10.1 7 10.1C8.71198 10.1 10.1 8.71198 10.1 7C10.1 5.28802 8.71198 3.9 7 3.9ZM7 8.775C6.02173 8.775 5.225 7.97827 5.225 7C5.225 6.021 6.0217 5.225 7 5.225C7.9783 5.225 8.775 6.021 8.775 7C8.775 7.97827 7.97827 8.775 7 8.775ZM10.225 4.2748C10.501 4.2748 10.7248 4.05105 10.7248 3.77505C10.7248 3.49905 10.501 3.2753 10.225 3.2753C9.94903 3.2753 9.72529 3.49905 9.72529 3.77505C9.72529 4.05105 9.94903 4.2748 10.225 4.2748Z" fill="#262626" stroke="#262626" stroke-width="0.2"/>
</svg>
