<svg width="24" height="17" viewBox="0 0 24 17" fill="none" xmlns="http://www.w3.org/2000/svg">
<path d="M0 1.21432C0 0.543715 0.539869 0 1.21535 0H18.2133C18.8844 0 19.4286 0.5391 19.4286 1.21432C19.4286 1.88493 18.8888 2.42864 18.2133 2.42864H1.21535C0.544227 2.42864 0 1.88954 0 1.21432ZM0 8.5C0 7.82939 0.54756 7.28568 1.20791 7.28568H21.8634C22.5305 7.28568 23.0714 7.82478 23.0714 8.5C23.0714 9.17061 22.5238 9.71432 21.8634 9.71432H1.20791C0.540895 9.71432 0 9.17522 0 8.5ZM0 15.7857C0 15.1151 0.546278 14.5714 1.22253 14.5714H15.7772C16.4524 14.5714 16.9997 15.1105 16.9997 15.7857C16.9997 16.4563 16.4535 17 15.7772 17H1.22253C0.547303 17 0 16.4609 0 15.7857Z" fill="#262626"/>
</svg>
