<svg width="193" height="42" viewBox="0 0 193 42" fill="none" xmlns="http://www.w3.org/2000/svg">
<path d="M191.771 37.7284C184.743 37.4363 177.678 38.0205 172.439 36.0672C170.687 35.9942 174.283 32.6718 172.585 30.8646C170.833 30.7916 167.309 30.6455 165.539 30.5725C163.859 27.9073 167.437 25.4429 165.758 22.7777C164.078 20.1125 156.996 21.5547 155.28 19.7474C150.04 17.7942 158.876 17.283 164.151 17.5021C162.435 15.6949 167.675 17.6481 167.711 15.9139C167.802 12.4455 167.894 8.97711 160.939 6.09286C159.204 5.16186 161.03 2.62445 161.085 0.890243C139.964 0.0322684 117.109 -0.898725 95.8968 1.71171C78.2261 3.59195 57.0506 -0.989999 39.5443 1.16406C34.2504 1.82124 25.5428 -2.01227 21.9101 2.18633C23.6626 2.25935 25.4333 2.33237 27.1858 2.40539C21.8371 4.79676 16.6345 1.98553 11.3224 2.62445C11.2676 4.35865 11.2493 5.23488 9.46036 6.01983C12.9835 6.16587 18.2774 5.5087 21.7823 6.51271L21.7093 9.10489C18.1679 9.83509 12.9288 7.88182 9.38735 8.61201C9.36909 9.48824 9.31433 11.2224 9.29607 12.0804C9.27782 12.9384 7.5071 12.8836 5.75464 12.8106C7.5071 12.8836 11.0303 13.0297 12.801 13.1027C12.7827 13.9607 12.728 15.7131 12.7097 16.5711C12.6915 17.4473 10.9207 17.3743 9.16829 17.3013C9.11353 19.0355 7.3063 20.6967 9.0405 21.6277C10.8112 21.7007 12.5637 21.7737 14.3161 21.8467C7.25154 22.4309 3.61884 26.6295 3.54582 29.2217C5.33479 28.4184 5.26177 31.0289 7.05074 30.2257C1.70209 32.617 -3.66482 35.8664 3.34502 37.0165C64.8454 42.1278 128.281 41.2333 189.909 42C193.432 41.2516 191.716 39.4626 191.771 37.7284Z" fill="#FDDB2B"/>
<path d="M40.4391 32.7808C38.431 31.6308 36.8429 30.0426 35.7111 28.0164C34.5793 25.9901 33.9951 23.7265 33.9951 21.2073C33.9951 18.6882 34.561 16.4246 35.7111 14.4165C36.8429 12.4085 38.431 10.8204 40.4391 9.6703C42.4471 8.52025 44.7107 7.95435 47.2298 7.95435C49.7307 7.95435 51.9943 8.5385 54.0206 9.6703C56.0469 10.8204 57.6168 12.4085 58.7669 14.4165C59.8987 16.4246 60.4828 18.6882 60.4828 21.2073C60.4828 23.7265 59.9169 26.0083 58.7669 28.0164C57.6351 30.0426 56.0469 31.6308 54.0206 32.7808C51.9943 33.9309 49.7307 34.4968 47.2298 34.4968C44.7107 34.4968 42.4471 33.9309 40.4391 32.7808ZM52.688 30.6268C54.3127 29.6775 55.5905 28.3814 56.5215 26.7385C57.4525 25.0956 57.9089 23.2519 57.9089 21.2073C57.9089 19.1993 57.4525 17.3738 56.5215 15.7126C55.5905 14.0697 54.3127 12.7736 52.688 11.8244C51.0633 10.8751 49.2379 10.4005 47.2298 10.4005C45.2036 10.4005 43.3598 10.8751 41.7351 11.8244C40.1105 12.7736 38.8326 14.0697 37.9016 15.7126C36.9707 17.3556 36.5143 19.181 36.5143 21.2073C36.5143 23.2336 36.9707 25.0773 37.9016 26.7385C38.8326 28.3814 40.1105 29.6775 41.7351 30.6268C43.3598 31.576 45.1853 32.0507 47.2298 32.0507C49.2561 32.0507 51.0633 31.576 52.688 30.6268Z" fill="black"/>
<path d="M69.5009 33.1638C67.8762 32.2693 66.7079 31.0645 65.9959 29.5311C65.9047 29.3851 65.8682 29.2026 65.8682 29.0017C65.8682 28.6914 65.9777 28.4358 66.215 28.2168C66.4523 28.016 66.7627 27.9065 67.1643 27.9065C67.4381 27.9065 67.6754 27.9795 67.9127 28.1255C68.15 28.2715 68.3143 28.4724 68.4238 28.7462C68.935 29.7502 69.7747 30.5351 70.9613 31.1558C72.1478 31.7582 73.5169 32.0685 75.0868 32.0685C76.8941 32.0685 78.3544 31.6304 79.468 30.7542C80.5815 29.878 81.1292 28.6549 81.1292 27.085C81.1292 25.6976 80.618 24.5293 79.5958 23.5618C78.5735 22.6126 77.0218 22.0102 74.9773 21.7363C72.4034 21.426 70.3954 20.6228 68.9167 19.3267C67.4381 18.0306 66.7079 16.4425 66.7079 14.5622C66.7079 13.2296 67.073 12.0613 67.7849 11.0573C68.4969 10.0533 69.5009 9.28659 70.7787 8.73895C72.0565 8.1913 73.4987 7.91748 75.1051 7.91748C76.8575 7.91748 78.3909 8.30082 79.7235 9.08578C81.0561 9.85248 82.0967 10.8747 82.8451 12.0978C82.9911 12.3351 83.0824 12.609 83.0824 12.901C83.0824 13.3209 82.8816 13.6495 82.48 13.905C82.2975 13.9963 82.0967 14.0328 81.8776 14.0328C81.6403 14.0328 81.403 13.9781 81.2022 13.8503C80.9831 13.7225 80.8188 13.5582 80.691 13.3391C79.4497 11.3859 77.5877 10.4184 75.0868 10.3819C73.2979 10.3819 71.874 10.7652 70.8335 11.5137C69.7929 12.2621 69.2818 13.3391 69.2818 14.7265C69.2818 17.3187 71.3629 18.8886 75.5432 19.4362C78.2814 19.8378 80.326 20.6776 81.6768 21.9554C83.0277 23.2332 83.7031 24.9309 83.7031 27.0302C83.7031 28.5819 83.3197 29.9145 82.5713 31.0463C81.8228 32.1781 80.7823 33.036 79.4862 33.6202C78.1901 34.2043 76.7298 34.4964 75.1051 34.4964C72.9875 34.4964 71.1255 34.0583 69.5009 33.1638Z" fill="black"/>
<path d="M115.959 8.6295C116.197 8.86681 116.324 9.17715 116.324 9.5605V32.8718C116.324 33.2187 116.197 33.529 115.959 33.7846C115.722 34.0402 115.412 34.1679 115.065 34.1679C114.682 34.1679 114.371 34.0402 114.116 33.7846C113.86 33.529 113.732 33.2187 113.732 32.8718V14.1059L104.514 32.9449C104.24 33.3647 103.875 33.5838 103.382 33.5838C102.834 33.5838 102.433 33.31 102.195 32.7806L93.0131 14.398V32.8718C93.0131 33.2187 92.8853 33.529 92.648 33.7846C92.4107 34.0402 92.1003 34.1679 91.717 34.1679C91.3702 34.1679 91.0598 34.0402 90.8043 33.7846C90.5487 33.529 90.4209 33.2187 90.4209 32.8718V9.5605C90.4209 9.17715 90.5487 8.86681 90.8043 8.6295C91.0598 8.39219 91.3702 8.2644 91.717 8.2644C92.2281 8.2644 92.6115 8.48347 92.8853 8.92158L103.491 30.0241L113.897 8.92158C114.17 8.48347 114.554 8.2644 115.065 8.2644C115.412 8.2644 115.704 8.39219 115.959 8.6295Z" fill="black"/>
<path d="M124.667 33.7846C124.411 33.529 124.283 33.2187 124.283 32.8718V9.5605C124.283 9.17715 124.411 8.86681 124.667 8.6295C124.922 8.39219 125.232 8.2644 125.579 8.2644H141.132C141.516 8.2644 141.826 8.39219 142.063 8.6295C142.301 8.86681 142.428 9.17715 142.428 9.52399C142.428 9.87083 142.301 10.1629 142.063 10.4002C141.826 10.6375 141.516 10.7471 141.132 10.7471H126.875V19.8927H137.262C137.646 19.8927 137.956 20.0205 138.193 20.2578C138.431 20.4951 138.558 20.8054 138.558 21.1523C138.558 21.4991 138.431 21.8095 138.175 22.0468C137.92 22.2841 137.609 22.4119 137.262 22.4119H126.875V31.667H141.132C141.516 31.667 141.826 31.7766 142.063 32.0139C142.301 32.2512 142.428 32.5433 142.428 32.8901C142.428 33.2369 142.301 33.5473 142.063 33.7846C141.826 34.0219 141.516 34.1497 141.132 34.1497H125.579C125.214 34.1679 124.922 34.0401 124.667 33.7846Z" fill="black"/>
</svg>
