<svg width="16" height="16" viewBox="0 0 16 16" fill="none" xmlns="http://www.w3.org/2000/svg">
<path d="M11.4297 10.5007L15.0574 14.1283C15.0574 14.1283 15.0574 14.1284 15.0575 14.1284C15.3142 14.385 15.3142 14.8011 15.0574 15.0577C14.9292 15.1859 14.7606 15.25 14.5931 15.25C14.4254 15.25 14.2567 15.1859 14.1284 15.0576M11.4297 10.5007L14.3052 14.8808M11.4297 10.5007C12.2551 9.47302 12.751 8.16891 12.751 6.75049C12.751 3.44171 10.0594 0.75 6.75041 0.75C3.4414 0.75 0.75 3.44189 0.75 6.75065C0.75 10.0594 3.44142 12.751 6.75041 12.751C8.16869 12.751 9.4728 12.2551 10.5004 11.4297M11.4297 10.5007L10.5155 11.0913M14.1284 15.0576L14.3052 14.8808M14.1284 15.0576L14.1284 15.0576L14.3052 14.8808M14.1284 15.0576L10.5004 11.4297M14.3052 14.8808L10.5155 11.0913M10.5004 11.4297C10.561 11.381 10.6208 11.3311 10.6795 11.2801L10.5155 11.0913M10.5004 11.4297L10.3387 11.2681L10.5155 11.0913M2.06418 6.75049C2.06418 4.16662 4.16667 2.06417 6.75041 2.06417C9.33432 2.06417 11.4368 4.16679 11.4368 6.75049C11.4368 9.33419 9.33433 11.4366 6.75041 11.4366C4.16667 11.4366 2.06418 9.33419 2.06418 6.75049Z" fill="white" stroke="white" stroke-width="0.5"/>
</svg>
